# xmcd
#
# Track frame offsets:
#	150
#	11557
#	25982
#	41787
#	58670
#	71302
#	84722
#	97907
#	109475
#	122330
#	141280
#	158905
#	174675
#	192222
#	213217
#	231517
#	245180
#	256535
#	272232
#
# Disc length: 3779
#
# Revision: 1
# Processed by: cddbd v1.5.1PL0 Copyright (c) Steve Scherf et al.
# Submitted via: CDex 1.51
# Normalized: r0:TDELIM( - )
#
DISCID=0f0ec113
DTITLE=Various Artist - A Salute To The Great American Artists Vol. I
DYEAR=1996
DGENRE=Jazz
TTITLE0=Frank Sinatra - New York, New York
TTITLE1=Frank Sinatra - Come Fly With Me
TTITLE2=Frank Sinatra - Strangers In The Night
TTITLE3=Frank Sinatra - Fly Me To The Moon
TTITLE4=Frank Sinatra - All The Way
TTITLE5=Tony Bennett - I Left My Heart In San Francisco
TTITLE6=Tony Bennett - Because Of You
TTITLE7=Tony Bennett - Rags To Riches
TTITLE8=Ella Fitzgerald - Mack The Knife
TTITLE9=Ella Fitzgerald - I Love Paris
TTITLE10=Ella Fitzgerald - A Foggy Day
TTITLE11=Nat King Cole - Unforgettable
TTITLE12=Nat King Cole - Mona Lisa
TTITLE13=Nat King Cole - Blues For Nat
TTITLE14=Nat King Cole - Too Young
TTITLE15=Simon and Garfunkel - Bridge Over Troubled Water
TTITLE16=Simon and Garfunkel - Scarborough Fayre
TTITLE17=Simon and Garfunkel - The Sound Of Silence
TTITLE18=Simon and Garfunkel - Homeward Bound
EXTD=YEAR: 1996
EXTT0=
EXTT1=
EXTT2=
EXTT3=
EXTT4=
EXTT5=
EXTT6=
EXTT7=
EXTT8=
EXTT9=
EXTT10=
EXTT11=
EXTT12=
EXTT13=
EXTT14=
EXTT15=
EXTT16=
EXTT17=
EXTT18=
PLAYORDER=
